PathFileType	4	(X/Y/Z)	Run_300 01
DataRate	CameraRate	NumFrames	NumMarkers	Units	OrigDataRate	OrigDataStartFrame	OrigNumFrames
100	100	4	42	mm	100	57	128
Frame#	Time	LASI			RASI			LPSI			RPSI			RTH1			RTH2			RTH3			LTH1			LTH2			LTH3			RTB1			RTB2			RTB3			LTB1			LTB2			LTB3			RCAL			RTOE			RMT5			LCAL			LTOE			LACR			RACR			CLAV			C7			RUA1			RUA2			RUA3			RLEL			RMEL			LUA1			LUA2			LUA3			LLEL			LMEL			RFAsuperior			RFAradius			RFAulna			LFAsuperior			LFAradius			LFAulna			LMT5			
		X1	Y1	Z1	X2	Y2	Z2	X3	Y3	Z3	X4	Y4	Z4	X5	Y5	Z5	X6	Y6	Z6	X7	Y7	Z7	X8	Y8	Z8	X9	Y9	Z9	X10	Y10	Z10	X11	Y11	Z11	X12	Y12	Z12	X13	Y13	Z13	X14	Y14	Z14	X15	Y15	Z15	X16	Y16	Z16	X17	Y17	Z17	X18	Y18	Z18	X19	Y19	Z19	X20	Y20	Z20	X21	Y21	Z21	X22	Y22	Z22	X23	Y23	Z23	X24	Y24	Z24	X25	Y25	Z25	X26	Y26	Z26	X27	Y27	Z27	X28	Y28	Z28	X29	Y29	Z29	X30	Y30	Z30	X31	Y31	Z31	X32	Y32	Z32	X33	Y33	Z33	X34	Y34	Z34	X35	Y35	Z35	X36	Y36	Z36	X37	Y37	Z37	X38	Y38	Z38	X39	Y39	Z39	X40	Y40	Z40	X41	Y41	Z41	X42	Y42	Z42	

51	0.93	708.05715	977.572721	-450.104803	719.647936	990.228195	-197.055074	529.110234	1060.290716	-356.257912	530.9755270000001	1061.097096	-272.109516	697.646345	867.13519	-130.606753	814.444424	775.954925	-147.494398	799.147277	655.737635	-149.325391	632.224595	861.843445	-499.200301	693.314486	741.833233	-474.404268	605.774885	609.984729	-455.714691	782.136212	448.961984	-210.817141	674.598112	431.516983	-159.766308	608.442933	354.132352	-219.419967	608.20212	379.369751	-377.555631	516.487716	331.528132	-433.780883	492.271962	209.607749	-353.123543	423.734744	380.580678	-235.33721	556.5134	188.710834	-239.810828	511.267202	188.820371	-156.725519	299.74135	125.497257	-316.883082	523.59856	67.38861199999999	-349.208248	707.0863000000001	1495.636623	-511.443559	668.601526	1507.997845	-170.500179	762.764327	1460.60983	-306.590686	626.689028	1535.344706	-361.413327	586.932873	1418.650605	-87.996454	504.209428	1358.329495	-121.330501	522.308632	1322.097425	-55.619243	483.462451	1236.948308	-21.044788	455.08099	1219.937716	-95.518959	686.685712	1386.566845	-606.918321	624.214923	1300.140899	-605.840769	683.736938	1271.897407	-651.981327	702.939439	1187.538224	-680.5006100000001	640.4249170000001	1154.013881	-641.651663	517.077314	1161.662808	-11.207527	662.043219	1023.745549	-65.66803899999999	604.730461	993.740375	-36.720437	787.997253	1138.596198	-598.327811	851.342099	1153.43283	-456.220395	845.948543	1089.348827	-478.800947	475.093407	49.531235	-426.889505	
52	0.9399999999999999	709.040265	981.333715	-450.242781	719.441353	999.470181	-196.991758	530.511387	1065.958785	-357.563231	532.338437	1066.969148	-273.963577	699.6375870000001	876.421755	-130.627359	817.738996	786.557276	-148.549066	804.09563	665.595269	-151.912492	628.099635	866.392514	-498.556698	685.225405	744.685006	-474.401596	591.590588	616.403511	-455.404537	797.730015	453.435898	-211.187652	691.638618	428.681216	-161.555779	632.483152	345.162699	-220.494285	586.051135	385.256222	-378.59646	493.608886	339.827498	-435.134344	467.666166	217.156303	-354.982886	445.901057	354.387386	-238.811869	597.031551	176.531562	-237.890644	551.401309	174.215415	-155.161085	275.328003	137.276995	-319.882843	494.297032	66.832949	-349.743885	710.573978	1502.586088	-509.610681	666.676212	1515.296729	-169.759847	762.8241	1467.511626	-304.039369	627.652513	1541.52439	-361.04428	582.650489	1427.720328	-88.37879700000001	500.085752	1368.646845	-122.216376	516.761081	1332.236641	-55.902475	476.362082	1247.596159	-22.014635	448.076046	1231.308473	-96.70587	692.763644	1392.777019	-604.787873	631.7921	1305.367036	-605.2417830000001	693.169579	1277.279537	-648.216857	713.142905	1192.946295	-676.123321	650.1813	1157.668794	-638.259775	509.030127	1172.001834	-12.251673	653.188222	1033.579094	-64.734881	595.004419	1003.213067	-38.278592	798.707813	1149.320052	-591.868517	859.5859840000001	1170.732955	-449.588868	857.557604	1104.994839	-468.787554	445.322497	49.779334	-427.016039	
53	0.95	710.7306129999999	985.678713	-450.546551	719.406596	1008.675456	-197.299089	532.652557	1072.712992	-359.290874	535.176067	1073.117774	-276.04673	701.909359	885.763972	-130.723081	820.311336	796.4969180000001	-149.473519	807.548107	675.044931	-154.338454	625.367732	872.2739769999999	-498.000706	678.707982	749.073342	-474.072285	578.634276	624.41974	-455.461809	812.511993	457.948749	-212.462152	708.3755190000001	424.608535	-163.537884	657.1310089999999	335.661888	-222.034181	564.952354	392.691423	-379.485848	472.037872	349.823462	-436.783027	444.089154	226.307704	-356.696207	470.33749	327.289973	-242.641289	638.160615	165.150394	-236.363815	592.185533	160.397049	-154.209789	253.010749	150.724893	-322.655823	465.393427	66.40037	-350.124193	713.993801	1510.384529	-507.674681	664.897517	1523.209498	-169.084926	762.959323	1475.222669	-301.548688	628.705993	1548.353652	-360.619954	578.640453	1437.524433	-88.928443	496.286209	1379.453027	-123.134668	511.662069	1342.662377	-56.222967	469.929244	1258.639319	-23.28426	441.714717	1243.178248	-98.206553	698.383526	1400.101976	-602.732942	639.19179	1311.709458	-604.441042	702.169796	1284.360071	-644.99645	722.7203929999999	1199.828102	-672.191644	659.39513	1162.899641	-635.288733	501.810086	1182.901469	-13.518204	645.361568	1043.866302	-64.424891	586.472877	1013.42416	-39.927671	808.141976	1161.088975	-585.771566	866.151419	1188.44705	-443.484931	866.806028	1121.644266	-459.805575	416.385234	50.615175	-427.432601	
54	0.96	712.998067	990.848528	-450.604763	719.668471	1017.255188	-197.866477	535.518172	1080.034223	-360.910488	537.9560310000001	1079.909545	-277.53227	704.151323	894.771165	-131.259631	822.136931	805.231062	-150.31245	809.450945	683.910924	-156.542285	624.465309	879.016532	-497.812312	673.368813	754.271302	-473.752626	566.9352249999999	633.526933	-456.124492	826.2835690000001	462.239669	-214.306634	724.8831	419.470419	-165.597759	682.288256	325.927507	-223.859339	545.670835	401.470941	-381.162951	452.088884	361.071614	-438.926317	423.074295	236.368792	-359.38041	497.099338	299.960491	-246.341459	679.5790909999999	154.739179	-235.838735	633.4792660000001	147.131347	-154.242887	233.419357	165.635835	-325.108725	436.914471	66.148982	-350.306903	717.336392	1518.752298	-505.546763	663.3867739999999	1531.29587	-168.452988	763.133154	1483.483966	-299.194568	629.866985	1555.61779	-360.11096	575.171721	1447.582643	-89.644541	492.719653	1390.144969	-124.433723	506.962929	1353.039827	-56.703033	464.077981	1269.724645	-24.798518	436.165197	1255.152738	-100.150724	703.812986	1408.255436	-600.632693	646.109831	1319.227828	-603.583824	710.475073	1292.766031	-642.369458	731.519434	1207.876635	-668.805714	668.076468	1169.639282	-632.817465	495.213656	1193.933974	-14.948039	638.5601830000001	1054.284678	-64.491737	579.065349	1023.954174	-41.475432	816.290382	1173.511278	-580.185529	871.272611	1205.952767	-438.020209	873.766643	1138.778402	-452.067376	388.062521	51.804501	-427.89377	
